<svg width="267" height="166" viewBox="0 0 267 166" fill="none" xmlns="http://www.w3.org/2000/svg">
<g filter="url(#filter0_d_22_7)">
<path d="M184.524 0.41511C180.62 1.49434 177.572 3.97021 175.827 7.49357C174.811 9.52506 174.747 9.779 174.747 13.1436C174.747 16.54 174.779 16.6987 175.954 19.0477C179.191 25.6182 186.746 28.2211 193.475 25.0786C200.744 21.6505 203.157 12.3501 198.49 5.65254C195.411 1.2404 189.444 -0.981537 184.524 0.41511Z" fill="white"/>
<path d="M115.549 14.096C111.136 15.937 106.407 19.2064 103.169 22.6663C101.582 24.3486 100.662 25.7453 99.2332 28.6656C95.4242 36.4106 91.5834 47.1711 89.044 57.2333C87.6157 62.7882 86.0603 71.1998 86.3777 71.5172C86.4729 71.6125 88.4092 70.8507 90.6629 69.8032C92.9166 68.7874 99.265 65.8989 104.756 63.423C110.248 60.9472 118.501 57.2016 123.071 55.1384C131.737 51.2024 133.197 50.7897 135.006 51.7102C135.387 51.9007 137.324 53.6465 139.292 55.5828C143.386 59.6775 143.228 59.7727 142.18 53.71C139.387 37.5533 133.483 23.6503 126.531 16.9845C122.818 13.4294 119.358 12.5089 115.549 14.096Z" fill="white"/>
<path d="M131.039 55.3288C130.118 55.7097 115.803 62.1533 99.2016 69.6762C82.6323 77.199 65.0472 85.1663 60.1907 87.3565C55.3024 89.5467 51.049 91.6099 50.7316 91.8956C49.8745 92.6574 50.0015 94.054 50.9855 94.8158C51.8108 95.4824 52.033 95.4824 75.3316 95.4824H98.8524L102.852 93.2287C105.042 91.9591 115.771 85.8329 126.754 79.5479L146.656 68.1208L140.307 61.5185C136.816 57.8999 133.673 54.8527 133.356 54.7574C133.007 54.694 131.991 54.9162 131.039 55.3288Z" fill="white"/>
<path d="M153.163 68.3113C140.593 75.5167 122.246 86.055 112.374 91.7369C95.2338 101.545 94.4402 102.053 94.345 102.974C94.2815 103.545 94.4402 104.116 94.7259 104.338C94.9481 104.529 101.074 106.433 108.311 108.497L121.421 112.306H166.431C210.997 112.306 211.41 112.306 212.044 111.671C212.394 111.322 212.679 110.75 212.679 110.401C212.679 109.798 178.906 57.2333 177.795 56.0906C177.509 55.7732 177.001 55.4558 176.652 55.3605C176.176 55.2336 169.732 58.7887 153.163 68.3113Z" fill="white"/>
<path d="M82.0628 129.799H90.1378L89.8878 131.549H84.2128V137.649H89.3878V139.399H84.2128V147.299H82.0628V129.799ZM92.9464 147.299H90.7464L94.8964 129.799H98.5464L102.696 147.299H100.496L99.4714 142.874H93.9714L92.9464 147.299ZM99.0464 141.124L96.7964 131.399H96.6464L94.3714 141.124H99.0464ZM111.136 147.299H107.786L103.686 129.799H105.811L109.386 145.874H109.536L113.111 129.799H115.236L111.136 147.299ZM118.367 147.299V129.799H126.692L126.442 131.549H120.517V137.649H125.942V139.399H120.517V145.549H126.942V147.299H118.367ZM130.183 147.299V129.799H132.333V145.549H137.983V147.299H130.183ZM141.555 147.299H139.355L143.505 129.799H147.155L151.305 147.299H149.105L148.08 142.874H142.58L141.555 147.299ZM147.655 141.124L145.405 131.399H145.255L142.98 141.124H147.655ZM170.226 146.649C169.743 146.915 169.068 147.14 168.201 147.324C167.334 147.507 166.584 147.599 165.951 147.599C165.318 147.599 164.776 147.574 164.326 147.524C163.893 147.49 163.501 147.415 163.151 147.299C162.801 147.165 162.493 147.04 162.226 146.924C161.959 146.807 161.718 146.607 161.501 146.324C161.301 146.04 161.134 145.799 161.001 145.599C160.868 145.399 160.751 145.074 160.651 144.624C160.568 144.174 160.501 143.799 160.451 143.499C160.401 143.182 160.368 142.699 160.351 142.049C160.318 140.782 160.301 139.59 160.301 138.474C160.301 137.357 160.309 136.515 160.326 135.949C160.343 135.382 160.376 134.699 160.426 133.899C160.493 133.099 160.601 132.532 160.751 132.199C160.901 131.849 161.101 131.457 161.351 131.024C161.601 130.574 161.926 130.265 162.326 130.099C163.393 129.699 164.559 129.499 165.826 129.499C167.109 129.499 168.359 129.682 169.576 130.049L169.201 131.674C168.084 131.407 167.084 131.274 166.201 131.274C165.318 131.274 164.651 131.332 164.201 131.449C163.768 131.565 163.434 131.699 163.201 131.849C162.968 131.999 162.793 132.24 162.676 132.574C162.576 132.907 162.518 133.199 162.501 133.449C162.484 133.682 162.476 134.049 162.476 134.549V142.474C162.476 143.807 162.609 144.615 162.876 144.899C163.309 145.349 163.776 145.615 164.276 145.699C164.776 145.782 165.376 145.824 166.076 145.824C166.776 145.824 167.493 145.749 168.226 145.599V139.924H165.851V138.424H170.226V146.649ZM183.12 147.024C182.72 147.174 182.228 147.307 181.645 147.424C181.078 147.54 180.462 147.599 179.795 147.599C179.128 147.599 178.57 147.574 178.12 147.524C177.687 147.49 177.295 147.415 176.945 147.299C176.595 147.165 176.287 147.04 176.02 146.924C175.753 146.807 175.512 146.607 175.295 146.324C175.095 146.04 174.928 145.799 174.795 145.599C174.662 145.399 174.545 145.074 174.445 144.624C174.362 144.174 174.295 143.799 174.245 143.499C174.195 143.182 174.162 142.699 174.145 142.049C174.112 140.782 174.095 139.59 174.095 138.474C174.095 137.357 174.103 136.515 174.12 135.949C174.137 135.382 174.17 134.699 174.22 133.899C174.287 133.099 174.395 132.532 174.545 132.199C174.695 131.849 174.895 131.457 175.145 131.024C175.395 130.574 175.72 130.265 176.12 130.099C177.187 129.699 178.312 129.499 179.495 129.499C180.678 129.499 181.612 129.624 182.295 129.874C182.995 130.107 183.545 130.39 183.945 130.724C184.345 131.057 184.628 131.674 184.795 132.574C184.978 133.474 185.087 134.29 185.12 135.024C185.153 135.757 185.17 136.832 185.17 138.249C185.17 139.649 185.162 140.632 185.145 141.199C185.128 141.765 185.087 142.449 185.02 143.249C184.97 144.049 184.87 144.624 184.72 144.974C184.57 145.307 184.37 145.69 184.12 146.124C183.87 146.557 183.537 146.857 183.12 147.024ZM182.995 142.474V134.624C182.995 133.29 182.853 132.482 182.57 132.199C182.153 131.749 181.695 131.482 181.195 131.399C180.712 131.315 180.195 131.274 179.645 131.274C179.095 131.274 178.62 131.307 178.22 131.374C177.82 131.44 177.495 131.557 177.245 131.724C177.012 131.89 176.82 132.049 176.67 132.199C176.537 132.349 176.437 132.582 176.37 132.899C176.303 133.299 176.27 133.874 176.27 134.624V142.474C176.27 143.807 176.403 144.615 176.67 144.899C177.103 145.349 177.57 145.615 178.07 145.699C178.57 145.782 179.095 145.824 179.645 145.824C180.195 145.824 180.662 145.79 181.045 145.724C181.445 145.657 181.762 145.54 181.995 145.374C182.245 145.207 182.437 145.049 182.57 144.899C182.72 144.749 182.82 144.515 182.87 144.199C182.953 143.799 182.995 143.224 182.995 142.474Z" fill="white"/>
</g>
<defs>
<filter id="filter0_d_22_7" x="50.1608" y="-0.00012207" width="170.518" height="155.599" filterUnits="userSpaceOnUse" color-interpolation-filters="sRGB">
<feFlood flood-opacity="0" result="BackgroundImageFix"/>
<feColorMatrix in="SourceAlpha" type="matrix" values="0 0 0 0 0 0 0 0 0 0 0 0 0 0 0 0 0 0 127 0" result="hardAlpha"/>
<feOffset dx="4" dy="4"/>
<feGaussianBlur stdDeviation="2"/>
<feComposite in2="hardAlpha" operator="out"/>
<feColorMatrix type="matrix" values="0 0 0 0 0 0 0 0 0 0 0 0 0 0 0 0 0 0 0.25 0"/>
<feBlend mode="normal" in2="BackgroundImageFix" result="effect1_dropShadow_22_7"/>
<feBlend mode="normal" in="SourceGraphic" in2="effect1_dropShadow_22_7" result="shape"/>
</filter>
</defs>
</svg>
